<?xml version="1.0" encoding="utf-8"?>
<svg id="master-artboard" viewBox="0 0 1492.1182861328125 380.3941345214844" version="1.1" xmlns="http://www.w3.org/2000/svg" x="0px" y="0px" style="enable-background:new 0 0 1400 980;" width="176" height="52"><defs><style id="ee-google-fonts">@import url(https://fonts.googleapis.com/css?family=Fruktur:400);</style></defs><rect id="ee-background" x="0" y="0" width="1492.1182861328125" height="380.3941345214844" style="fill: white; fill-opacity: 0; pointer-events: none;"/>


<g transform="matrix(14.299201965332031, 0, 0, 14.299201965332031, 13.210545182228088, 18.872283935546875)"><title>Chase icon</title><path d="m8.5903 23.974q-0.18502 0-0.3304-0.0661-0.14538-0.0661-0.27753-0.17181-0.13216-0.10572-0.18502-0.26431-0.05286-0.15859-0.0793-0.34361l0.02643-5.9207h15.648l-7.1101 6.7665h-7.7181zm15.41-8.5639q-0.02643 0.18503-0.0793 0.3304-0.05286 0.14537-0.18502 0.26432-0.13216 0.11894-0.27753 0.18502-0.14538 0.0661-0.3304 0.0661h-5.9207l-0.02643-15.674 6.793 7.1366v7.6916zm-8.5903-15.383q0.15859 0 0.3304 0.0661t0.26432 0.17181q0.09251 0.10573 0.17181 0.26432 0.0793 0.15859 0.05286 0.34361l0.02643 5.9207h-15.7l7.163-6.7665h7.6652zm-15.383 8.5639q-0.02643-0.18502 0.05286-0.3304 0.0793-0.14537 0.18502-0.26431 0.10573-0.11895 0.26432-0.18503 0.15859-0.0661 0.31718-0.0661h5.9471l-0.02643 15.674-6.7401-7.1366-0.026431-7.6916z" style="fill: rgb(255, 255, 255);"/></g><path d="M 583.4863891601562 260.5189208984375 C 583.85302734375 260.7255859375 584.1296997070312 261.062255859375 584.3163452148438 261.5289306640625 C 584.5097045898438 261.9889221191406 584.6063842773438 262.50225830078125 584.6063842773438 263.06890869140625 C 584.6063842773438 263.70892333984375 584.4930419921875 264.3222351074219 584.266357421875 264.9089050292969 C 584.04638671875 265.4955749511719 583.7463989257812 265.9322509765625 583.3663940429688 266.2189025878906 C 582.7930297851562 266.16558837890625 582.1730346679688 266.0589294433594 581.50634765625 265.89892578125 C 580.8330688476562 265.7389221191406 579.7930297851562 265.4689025878906 578.3863525390625 265.08892822265625 L 577.8763427734375 264.94891357421875 L 578.3363647460938 268.69891357421875 C 579.2230224609375 268.5922546386719 579.959716796875 268.4889221191406 580.54638671875 268.388916015625 C 581.133056640625 268.2889099121094 581.8563842773438 268.14892578125 582.7163696289062 267.9689025878906 C 582.7363891601562 267.9622497558594 583.0430297851562 267.89556884765625 583.6363525390625 267.7689208984375 C 583.94970703125 268.2489013671875 584.1063842773438 268.8422546386719 584.1063842773438 269.5489196777344 C 584.1063842773438 270.0289001464844 584.04638671875 270.4889221191406 583.9263916015625 270.9289245605469 C 583.7996826171875 271.3689270019531 583.6630249023438 271.6689147949219 583.516357421875 271.82891845703125 C 583.2763671875 271.8489074707031 583.0397338867188 271.8589172363281 582.806396484375 271.8589172363281 C 582.00634765625 271.8589172363281 581.2230224609375 271.7822570800781 580.4563598632812 271.62890625 C 579.6963500976562 271.4689025878906 579.0197143554688 271.2222595214844 578.4263916015625 270.888916015625 L 578.266357421875 275.0489196777344 L 581.6263427734375 275.1689147949219 L 582.5863647460938 272.93890380859375 L 584.6963500976562 273.1189270019531 C 584.8096923828125 273.43890380859375 584.9130249023438 273.9322509765625 585.00634765625 274.5989074707031 C 585.093017578125 275.2655944824219 585.1363525390625 275.8689270019531 585.1363525390625 276.4089050292969 C 584.8297119140625 277.042236328125 584.4230346679688 277.5755920410156 583.9163818359375 278.0089111328125 C 583.4097290039062 278.4422607421875 582.8363647460938 278.7389221191406 582.1963500976562 278.89892578125 C 581.1830444335938 278.87225341796875 579.9364013671875 278.75225830078125 578.4563598632812 278.5389099121094 C 576.9763793945312 278.31890869140625 575.8030395507812 278.0955810546875 574.9364013671875 277.8689270019531 C 574.3163452148438 277.1355895996094 573.9530639648438 276.37225341796875 573.8463745117188 275.57891845703125 L 575.6963500976562 270.68890380859375 L 572.8463745117188 263.8489074707031 C 572.8463745117188 263.3355712890625 573.0397338867188 262.7822570800781 573.4263916015625 262.18890380859375 C 573.806396484375 261.58892822265625 574.2496948242188 261.11224365234375 574.75634765625 260.7589111328125 L 578.6563720703125 261.6189270019531 L 583.4863891601562 260.5189208984375 ZM 597.5640869140625 279.8089294433594 L 599.0140380859375 278.9889221191406 L 600.0440673828125 280.1589050292969 C 599.5374145507812 281.5322570800781 599.000732421875 282.5055847167969 598.43408203125 283.07891845703125 C 597.9674072265625 283.54559326171875 597.5040893554688 283.78558349609375 597.0440673828125 283.7989196777344 C 596.2107543945312 283.8322448730469 595.347412109375 283.5289001464844 594.4540405273438 282.888916015625 C 594.1207275390625 282.65557861328125 593.8707275390625 282.4089050292969 593.7040405273438 282.14892578125 C 593.5440673828125 281.888916015625 593.4640502929688 281.6055908203125 593.4640502929688 281.2989196777344 C 593.4640502929688 281.2122497558594 593.4674072265625 281.14892578125 593.4740600585938 281.1089172363281 L 594.154052734375 272.8689270019531 L 593.9140625 272.8489074707031 C 593.480712890625 273.9689025878906 592.970703125 275.1055908203125 592.384033203125 276.2589111328125 C 591.7974243164062 277.40557861328125 591.2540893554688 278.18890380859375 590.7540893554688 278.6089172363281 C 590.500732421875 278.80224609375 590.2673950195312 278.89892578125 590.0540771484375 278.89892578125 C 589.8740844726562 278.89892578125 589.694091796875 278.85223388671875 589.5140380859375 278.7589111328125 C 589.3407592773438 278.66558837890625 589.1040649414062 278.5155944824219 588.8040771484375 278.3089294433594 C 588.6773681640625 278.215576171875 588.5073852539062 278.1089172363281 588.2940673828125 277.9889221191406 C 587.9473876953125 277.79559326171875 587.6907348632812 277.62225341796875 587.5240478515625 277.4689025878906 C 587.357421875 277.3222351074219 587.2740478515625 277.14892578125 587.2740478515625 276.94891357421875 L 587.2940673828125 276.2289123535156 C 587.327392578125 275.65557861328125 587.3440551757812 275.2189025878906 587.3440551757812 274.9189147949219 C 587.3440551757812 273.8655700683594 587.2774047851562 272.6922607421875 587.14404296875 271.39892578125 C 587.0107421875 270.1055908203125 586.8207397460938 269.0322570800781 586.5740356445312 268.1789245605469 C 586.4873657226562 267.8922424316406 586.444091796875 267.6789245605469 586.444091796875 267.5389099121094 C 586.444091796875 267.4455871582031 586.4674072265625 267.35223388671875 586.5140380859375 267.2589111328125 C 586.5607299804688 267.16558837890625 586.6373901367188 267.042236328125 586.7440795898438 266.888916015625 C 587.3640747070312 266.1089172363281 588.0840454101562 265.5555725097656 588.904052734375 265.2289123535156 C 589.730712890625 264.9089050292969 590.4373779296875 264.70892333984375 591.0240478515625 264.62890625 C 591.577392578125 265.0222473144531 592.0607299804688 265.4889221191406 592.4740600585938 266.0289001464844 C 592.8807373046875 266.5755920410156 593.3140869140625 267.24224853515625 593.7740478515625 268.0289001464844 C 593.7673950195312 267.5489196777344 593.7440795898438 266.8489074707031 593.7040405273438 265.9289245605469 L 593.68408203125 265.14892578125 C 593.8173828125 265.062255859375 594.0707397460938 264.985595703125 594.444091796875 264.9189147949219 C 594.8173828125 264.85223388671875 595.220703125 264.81890869140625 595.654052734375 264.81890869140625 C 596.3607177734375 264.81890869140625 596.9740600585938 264.9322509765625 597.4940795898438 265.1589050292969 C 598.0140380859375 265.3855895996094 598.480712890625 265.7455749511719 598.89404296875 266.2389221191406 C 598.9273681640625 266.4989013671875 598.8540649414062 267.1789245605469 598.674072265625 268.2789001464844 C 598.4874267578125 269.37890625 598.2340698242188 270.562255859375 597.9140625 271.82891845703125 C 597.5940551757812 273.10223388671875 597.2573852539062 274.1589050292969 596.904052734375 274.9989013671875 L 597.5640869140625 279.8089294433594 M 591.18408203125 274.69891357421875 C 591.5707397460938 274.31890869140625 592.0240478515625 273.6855773925781 592.5440673828125 272.7989196777344 C 593.0707397460938 271.90557861328125 593.4774169921875 271.1522521972656 593.7640380859375 270.5389099121094 C 593.7840576171875 270.35223388671875 593.7940673828125 270.2455749511719 593.7940673828125 270.2189025878906 L 593.7940673828125 269.5989074707031 C 593.4540405273438 269.5122375488281 592.9540405273438 269.4022521972656 592.2940673828125 269.2689208984375 L 591.3240356445312 269.0589294433594 L 591.3240356445312 270.3089294433594 C 591.3240356445312 271.60223388671875 591.1607055664062 273.0089111328125 590.8340454101562 274.5289001464844 L 591.18408203125 274.69891357421875 ZM 604.7130126953125 267.7589111328125 C 604.7130126953125 268.985595703125 604.6663208007812 270.1255798339844 604.572998046875 271.1789245605469 C 604.486328125 272.2255859375 604.3330078125 273.2589111328125 604.1129760742188 274.2789001464844 L 604.4630126953125 274.43890380859375 C 604.736328125 274.1722412109375 605.052978515625 273.7255859375 605.4130249023438 273.0989074707031 C 605.766357421875 272.4789123535156 606.0896606445312 271.83892822265625 606.3829956054688 271.1789245605469 C 606.6829833984375 270.5189208984375 606.8763427734375 270.0322570800781 606.9630126953125 269.7189025878906 C 606.736328125 267.0122375488281 606.6229858398438 265.4889221191406 606.6229858398438 265.14892578125 C 606.75634765625 265.062255859375 607.0096435546875 264.985595703125 607.3829956054688 264.9189147949219 C 607.75634765625 264.85223388671875 608.15966796875 264.81890869140625 608.593017578125 264.81890869140625 C 609.2996826171875 264.81890869140625 609.9130249023438 264.9322509765625 610.4329833984375 265.1589050292969 C 610.9530029296875 265.3855895996094 611.419677734375 265.7455749511719 611.8330078125 266.2389221191406 L 611.8330078125 266.3689270019531 C 611.8330078125 266.7555847167969 611.7396850585938 267.4955749511719 611.552978515625 268.58892822265625 C 611.3596801757812 269.6822509765625 611.1063232421875 270.8322448730469 610.7930297851562 272.0389099121094 C 610.4796752929688 273.2455749511719 610.1563110351562 274.25225830078125 609.822998046875 275.0589294433594 L 611.843017578125 273.9789123535156 L 612.843017578125 275.39892578125 C 612.3963623046875 276.4322509765625 611.8863525390625 277.27557373046875 611.31298828125 277.9289245605469 C 610.7396850585938 278.5755920410156 610.1363525390625 278.89892578125 609.5029907226562 278.89892578125 C 609.1363525390625 278.89892578125 608.7429809570312 278.792236328125 608.322998046875 278.57891845703125 C 607.90966796875 278.3655700683594 607.5430297851562 278.0822448730469 607.2230224609375 277.7289123535156 C 607.189697265625 277.7022399902344 607.1129760742188 277.6255798339844 606.9929809570312 277.4989013671875 C 606.8729858398438 277.37225341796875 606.7796630859375 277.2189025878906 606.7130126953125 277.0389099121094 C 606.6463623046875 276.8589172363281 606.6129760742188 276.64892578125 606.6129760742188 276.4089050292969 C 606.6129760742188 276.3422546386719 606.6196899414062 276.23223876953125 606.6329956054688 276.07891845703125 C 606.7396850585938 274.99224853515625 606.8729858398438 273.9422607421875 607.0330200195312 272.9289245605469 L 606.85302734375 272.8489074707031 C 606.2596435546875 274.3555908203125 605.6129760742188 275.74224853515625 604.9130249023438 277.0089111328125 C 604.2130126953125 278.2689208984375 603.5863647460938 278.89892578125 603.0330200195312 278.89892578125 C 602.8396606445312 278.89892578125 602.6463623046875 278.85223388671875 602.4530029296875 278.7589111328125 C 602.2596435546875 278.6589050292969 602.0230102539062 278.5089111328125 601.7429809570312 278.3089294433594 L 601.3330078125 278.0389099121094 C 600.939697265625 277.7789001464844 600.6363525390625 277.5589294433594 600.4229736328125 277.37890625 C 600.21630859375 277.1922607421875 600.1129760742188 276.9889221191406 600.1129760742188 276.7689208984375 L 601.10302734375 271.95892333984375 L 599.2830200195312 266.89892578125 C 599.4896850585938 266.39892578125 599.8196411132812 265.985595703125 600.2730102539062 265.6589050292969 C 600.726318359375 265.3322448730469 601.226318359375 265.0922546386719 601.7730102539062 264.93890380859375 C 602.3196411132812 264.78558349609375 602.85302734375 264.70892333984375 603.3729858398438 264.70892333984375 C 603.9063110351562 264.70892333984375 604.31298828125 264.77557373046875 604.593017578125 264.9089050292969 C 604.6729736328125 265.735595703125 604.7130126953125 266.6855773925781 604.7130126953125 267.7589111328125 ZM 626.9135131835938 275.4089050292969 C 626.4601440429688 276.44891357421875 625.9468383789062 277.292236328125 625.37353515625 277.93890380859375 C 624.8001708984375 278.5922546386719 624.1934814453125 278.9189147949219 623.5535278320312 278.9189147949219 C 623.1934814453125 278.9189147949219 622.8068237304688 278.8089294433594 622.3934936523438 278.58892822265625 C 621.9801635742188 278.3689270019531 621.613525390625 278.0855712890625 621.2935180664062 277.7389221191406 C 621.2601928710938 277.7122497558594 621.1868286132812 277.6355895996094 621.073486328125 277.5089111328125 C 620.9534912109375 277.38226318359375 620.8601684570312 277.2289123535156 620.7935180664062 277.0489196777344 C 620.7268676757812 276.8689270019531 620.6934814453125 276.6589050292969 620.6934814453125 276.4189147949219 C 620.6934814453125 276.2789001464844 620.6968383789062 276.1689147949219 620.7034912109375 276.08892822265625 C 620.8168334960938 275.00225830078125 620.9501953125 273.9522399902344 621.103515625 272.93890380859375 L 620.9335327148438 272.8589172363281 C 619.7068481445312 275.9989013671875 618.690185546875 277.9189147949219 617.8834838867188 278.6189270019531 C 617.6434936523438 278.8055725097656 617.41015625 278.89892578125 617.1835327148438 278.89892578125 C 616.9901733398438 278.89892578125 616.8001708984375 278.85223388671875 616.613525390625 278.7589111328125 C 616.4268188476562 278.6589050292969 616.1968383789062 278.5122375488281 615.9235229492188 278.31890869140625 C 615.823486328125 278.2455749511719 615.6468505859375 278.138916015625 615.3934936523438 277.9989013671875 C 615.0535278320312 277.8055725097656 614.8001708984375 277.6355895996094 614.6334838867188 277.4889221191406 C 614.4668579101562 277.3355712890625 614.3768310546875 277.1589050292969 614.363525390625 276.95892333984375 C 614.363525390625 276.7389221191406 614.3701782226562 276.542236328125 614.3834838867188 276.3689270019531 C 614.3968505859375 275.8689270019531 614.4035034179688 275.4622497558594 614.4035034179688 275.14892578125 C 614.4035034179688 274.12890625 614.323486328125 272.9355773925781 614.1635131835938 271.56890869140625 C 614.0034790039062 270.20892333984375 613.786865234375 269.0822448730469 613.5134887695312 268.18890380859375 C 613.420166015625 267.8689270019531 613.37353515625 267.65557861328125 613.37353515625 267.5489196777344 C 613.37353515625 267.45556640625 613.3934936523438 267.36224365234375 613.4335327148438 267.2689208984375 C 613.4801635742188 267.1755676269531 613.5568237304688 267.05224609375 613.6635131835938 266.89892578125 C 614.0901489257812 266.3455810546875 614.593505859375 265.89892578125 615.1735229492188 265.5589294433594 C 615.7534790039062 265.2189025878906 616.2801513671875 264.9789123535156 616.7534790039062 264.83892822265625 C 617.2335205078125 264.69891357421875 617.6168212890625 264.6089172363281 617.9035034179688 264.56890869140625 C 618.4768676757812 264.9622497558594 618.9935302734375 265.4522399902344 619.4534912109375 266.0389099121094 C 619.9135131835938 266.63226318359375 620.3601684570312 267.2989196777344 620.7935180664062 268.0389099121094 C 620.7801513671875 267.5655822753906 620.7568359375 266.8655700683594 620.7235107421875 265.93890380859375 L 620.6934814453125 265.1589050292969 C 620.8268432617188 265.0722351074219 621.0802001953125 264.9955749511719 621.4534912109375 264.9289245605469 C 621.83349609375 264.86224365234375 622.23681640625 264.82891845703125 622.6635131835938 264.82891845703125 C 623.3768310546875 264.82891845703125 623.9935302734375 264.9422607421875 624.5134887695312 265.1689147949219 C 625.0335083007812 265.39556884765625 625.5001831054688 265.7555847167969 625.9135131835938 266.2489013671875 C 625.940185546875 266.5155944824219 625.8601684570312 267.20556640625 625.6735229492188 268.31890869140625 C 625.48681640625 269.4322509765625 625.2335205078125 270.6255798339844 624.9135131835938 271.89892578125 C 624.593505859375 273.1722412109375 624.2534790039062 274.2289123535156 623.8934936523438 275.06890869140625 L 625.9235229492188 273.9889221191406 L 626.9135131835938 275.4089050292969 M 618.2435302734375 274.70892333984375 C 618.6168212890625 274.3355712890625 619.0568237304688 273.70892333984375 619.5634765625 272.82891845703125 C 620.0701904296875 271.95556640625 620.4735107421875 271.1955871582031 620.7734985351562 270.5489196777344 C 620.7935180664062 270.36224365234375 620.8035278320312 270.2555847167969 620.8035278320312 270.2289123535156 L 620.8035278320312 269.6089172363281 C 620.363525390625 269.5089111328125 619.8601684570312 269.39892578125 619.2935180664062 269.2789001464844 L 618.2935180664062 269.06890869140625 L 618.3035278320312 270.32891845703125 L 618.3035278320312 270.70892333984375 C 618.3035278320312 271.89556884765625 618.1668090820312 273.1722412109375 617.8934936523438 274.5389099121094 L 618.2435302734375 274.70892333984375 ZM 628.1475830078125 277.0489196777344 C 628.0409545898438 276.9289245605469 627.9575805664062 276.7989196777344 627.8975830078125 276.6589050292969 C 627.8375854492188 276.52557373046875 627.8076171875 276.3589172363281 627.8076171875 276.1589050292969 C 627.8076171875 276.0922546386719 627.8242797851562 275.95556640625 627.8576049804688 275.7489013671875 L 628.6676025390625 271.56890869140625 C 628.4476318359375 270.4355773925781 628.2342529296875 269.1089172363281 628.027587890625 267.58892822265625 C 627.8209228515625 266.06890869140625 627.6509399414062 264.7022399902344 627.517578125 263.4889221191406 C 627.38427734375 262.27557373046875 627.3275756835938 261.6089172363281 627.3475952148438 261.4889221191406 C 627.7342529296875 261.00225830078125 628.2809448242188 260.5955810546875 628.9876098632812 260.2689208984375 C 629.6942749023438 259.9355773925781 630.394287109375 259.7689208984375 631.0875854492188 259.7689208984375 C 631.8076171875 259.7689208984375 632.3909301757812 259.9522399902344 632.8375854492188 260.31890869140625 C 632.7709350585938 262.14556884765625 632.654296875 264.14892578125 632.4876098632812 266.32891845703125 C 632.3209228515625 268.5089111328125 632.0609130859375 271.39556884765625 631.7075805664062 274.9889221191406 L 633.3875732421875 274.20892333984375 L 634.3275756835938 275.68890380859375 C 634.1676025390625 276.1755676269531 633.9209594726562 276.66558837890625 633.5875854492188 277.1589050292969 C 633.2476196289062 277.6589050292969 632.8576049804688 278.0755920410156 632.4176025390625 278.4089050292969 C 631.970947265625 278.735595703125 631.517578125 278.89892578125 631.0576171875 278.89892578125 C 630.5709228515625 278.89892578125 630.0709228515625 278.715576171875 629.5576171875 278.3489074707031 C 629.03759765625 277.98223876953125 628.567626953125 277.5489196777344 628.1475830078125 277.0489196777344 ZM 635.4833984375 277.0489196777344 C 635.3767700195312 276.9289245605469 635.2933959960938 276.7989196777344 635.2333984375 276.6589050292969 C 635.1734008789062 276.52557373046875 635.1434326171875 276.3589172363281 635.1434326171875 276.1589050292969 C 635.1434326171875 276.0922546386719 635.1600952148438 275.95556640625 635.1934204101562 275.7489013671875 L 636.00341796875 271.56890869140625 C 635.783447265625 270.4355773925781 635.570068359375 269.1089172363281 635.3634033203125 267.58892822265625 C 635.15673828125 266.06890869140625 634.9867553710938 264.7022399902344 634.8533935546875 263.4889221191406 C 634.7200927734375 262.27557373046875 634.6633911132812 261.6089172363281 634.6834106445312 261.4889221191406 C 635.070068359375 261.00225830078125 635.6167602539062 260.5955810546875 636.3234252929688 260.2689208984375 C 637.0300903320312 259.9355773925781 637.7301025390625 259.7689208984375 638.4234008789062 259.7689208984375 C 639.1434326171875 259.7689208984375 639.7267456054688 259.9522399902344 640.1734008789062 260.31890869140625 C 640.1067504882812 262.14556884765625 639.9901123046875 264.14892578125 639.8234252929688 266.32891845703125 C 639.65673828125 268.5089111328125 639.396728515625 271.39556884765625 639.0433959960938 274.9889221191406 L 640.723388671875 274.20892333984375 L 641.6633911132812 275.68890380859375 C 641.50341796875 276.1755676269531 641.2567749023438 276.66558837890625 640.9234008789062 277.1589050292969 C 640.5834350585938 277.6589050292969 640.1934204101562 278.0755920410156 639.75341796875 278.4089050292969 C 639.3067626953125 278.735595703125 638.8533935546875 278.89892578125 638.3934326171875 278.89892578125 C 637.90673828125 278.89892578125 637.40673828125 278.715576171875 636.8934326171875 278.3489074707031 C 636.3734130859375 277.98223876953125 635.9034423828125 277.5489196777344 635.4833984375 277.0489196777344 ZM 654.249267578125 266.37890625 L 654.1992797851562 266.6089172363281 C 654.0993041992188 267.1355895996094 653.962646484375 267.6422424316406 653.789306640625 268.12890625 C 653.615966796875 268.6155700683594 653.3026123046875 269.2722473144531 652.8493041992188 270.0989074707031 L 654.4692993164062 279.39892578125 C 654.3026123046875 280.0322570800781 654.0059814453125 280.638916015625 653.5792846679688 281.2189025878906 C 653.1459350585938 281.7989196777344 652.6259765625 282.3089294433594 652.019287109375 282.7489013671875 C 651.41259765625 283.1955871582031 650.7626342773438 283.53558349609375 650.0692749023438 283.7689208984375 C 649.9093017578125 283.7889099121094 649.7426147460938 283.7989196777344 649.5692749023438 283.7989196777344 C 649.0226440429688 283.7989196777344 648.4392700195312 283.6955871582031 647.8192749023438 283.4889221191406 C 647.2059326171875 283.27557373046875 646.6559448242188 283.0189208984375 646.1693115234375 282.7189025878906 C 645.6759643554688 282.4255676269531 645.3392944335938 282.1622619628906 645.1593017578125 281.9289245605469 C 645.1526489257812 281.82891845703125 645.1492919921875 281.6922607421875 645.1492919921875 281.5189208984375 C 645.1492919921875 281.2389221191406 645.172607421875 280.9955749511719 645.2192993164062 280.7889099121094 C 645.25927734375 280.58892822265625 645.3392944335938 280.29559326171875 645.4592895507812 279.9089050292969 C 646.0459594726562 280.042236328125 646.8326416015625 280.1689147949219 647.8192749023438 280.2889099121094 C 648.8059692382812 280.4089050292969 649.5659790039062 280.4689025878906 650.0993041992188 280.4689025878906 C 650.1126098632812 280.215576171875 650.1193237304688 279.79559326171875 650.1193237304688 279.20892333984375 C 650.1193237304688 278.27557373046875 650.0926513671875 277.1422424316406 650.039306640625 275.8089294433594 C 649.9926147460938 274.3555908203125 649.9692993164062 273.3489074707031 649.9692993164062 272.7889099121094 L 649.9692993164062 272.43890380859375 L 649.8493041992188 272.39892578125 C 649.6226196289062 272.985595703125 649.2859497070312 273.715576171875 648.8392944335938 274.58892822265625 C 648.3992919921875 275.45556640625 647.9359741210938 276.2689208984375 647.4492797851562 277.0289001464844 C 646.962646484375 277.7889099121094 646.5459594726562 278.3155822753906 646.1992797851562 278.6089172363281 C 645.9459838867188 278.80224609375 645.7092895507812 278.89892578125 645.4893188476562 278.89892578125 C 645.1492919921875 278.89892578125 644.6959838867188 278.7022399902344 644.1292724609375 278.3089294433594 L 643.7192993164062 278.0389099121094 C 643.3259887695312 277.7789001464844 643.0226440429688 277.5589294433594 642.8092651367188 277.37890625 C 642.6026000976562 277.1922607421875 642.499267578125 276.9889221191406 642.499267578125 276.7689208984375 L 643.4893188476562 271.95892333984375 L 641.6693115234375 266.89892578125 C 641.8759765625 266.39892578125 642.2059326171875 265.985595703125 642.6593017578125 265.6589050292969 C 643.1126098632812 265.3322448730469 643.6126098632812 265.0922546386719 644.1593017578125 264.93890380859375 C 644.7059326171875 264.78558349609375 645.2393188476562 264.70892333984375 645.75927734375 264.70892333984375 C 646.2926025390625 264.70892333984375 646.6992797851562 264.77557373046875 646.9793090820312 264.9089050292969 C 647.0592651367188 265.735595703125 647.0993041992188 266.6855773925781 647.0993041992188 267.7589111328125 C 647.0993041992188 268.6055908203125 647.0759887695312 269.45556640625 647.029296875 270.3089294433594 C 646.9893188476562 271.03558349609375 646.9293212890625 271.70556640625 646.8493041992188 272.31890869140625 C 646.7626342773438 272.9255676269531 646.6459350585938 273.57891845703125 646.499267578125 274.2789001464844 L 646.8493041992188 274.43890380859375 C 647.1226196289062 274.1722412109375 647.4392700195312 273.7455749511719 647.79931640625 273.1589050292969 C 648.1593017578125 272.5722351074219 648.4893188476562 271.9755859375 648.789306640625 271.3689270019531 C 649.0826416015625 270.7622375488281 649.269287109375 270.3089294433594 649.3493041992188 270.0089111328125 C 649.1226196289062 267.3089294433594 649.00927734375 265.68890380859375 649.00927734375 265.14892578125 C 649.1426391601562 265.062255859375 649.3959350585938 264.985595703125 649.769287109375 264.9189147949219 C 650.1426391601562 264.85223388671875 650.5459594726562 264.81890869140625 650.9793090820312 264.81890869140625 C 651.6859741210938 264.81890869140625 652.29931640625 264.9322509765625 652.8192749023438 265.1589050292969 C 653.3392944335938 265.3855895996094 653.8059692382812 265.7455749511719 654.2192993164062 266.2389221191406 C 654.2192993164062 266.292236328125 654.2092895507812 266.35223388671875 654.1892700195312 266.4189147949219 L 654.249267578125 266.37890625 Z" transform="matrix(13.51568603515625, 0, 0, 13.51568603515625, -7369.5126953125, -3469.50048828125)" style="fill: rgb(255, 255, 255); white-space: pre; color: rgb(51, 51, 51);"/></svg>
